<?xml version="1.0" encoding="UTF-8" standalone="no"?>
<!-- Generator: Adobe Illustrator 15.0.2, SVG Export Plug-In . SVG Version: 6.00 Build 0)  -->

<svg
   version="1.1"
   id="Layer_1"
   x="0px"
   y="0px"
   width="400px"
   height="142px"
   viewBox="0 0 400 142"
   enable-background="new 0 0 400 142"
   xml:space="preserve"
   sodipodi:docname="guacamole_logo.svg"
   inkscape:version="1.4.3 (0d15f75, 2025-12-25)"
   xmlns:inkscape="http://www.inkscape.org/namespaces/inkscape"
   xmlns:sodipodi="http://sodipodi.sourceforge.net/DTD/sodipodi-0.dtd"
   xmlns="http://www.w3.org/2000/svg"
   xmlns:svg="http://www.w3.org/2000/svg"><defs
   id="defs24"><clipPath
     clipPathUnits="userSpaceOnUse"
     id="clipPath6"><rect
       style="fill:#ff00ff;fill-opacity:1;stroke-width:2.976"
       id="rect7"
       width="490.19955"
       height="345.63669"
       x="13.142079"
       y="15.770495"
       transform="matrix(1.3565605,0,0,1.3565605,-10.31917,-19.955699)" /></clipPath><clipPath
     clipPathUnits="userSpaceOnUse"
     id="clipPath10"><circle
       style="fill:#000000;fill-opacity:1;stroke-width:1;stroke-linecap:round"
       id="circle10"
       cx="222.19148"
       cy="152.9957"
       r="53.896214"
       transform="matrix(5.1271579,0,0,5.1271579,-799.42235,-498.65112)" /></clipPath><clipPath
     clipPathUnits="userSpaceOnUse"
     id="clipPath23"><rect
       style="fill:#ffffff;fill-opacity:1;stroke:#14110d;stroke-width:0.423328;stroke-linecap:round"
       id="rect23"
       width="108.29284"
       height="28.263489"
       x="12.244035"
       y="14.981269"
       ry="1.7385876"
       transform="matrix(3.9249013,0,0,3.9249013,-88.591854,13.28724)" /></clipPath></defs><sodipodi:namedview
   id="namedview24"
   pagecolor="#505050"
   bordercolor="#eeeeee"
   borderopacity="1"
   inkscape:showpageshadow="0"
   inkscape:pageopacity="0"
   inkscape:pagecheckerboard="0"
   inkscape:deskcolor="#505050"
   inkscape:zoom="0.39244426"
   inkscape:cx="366.93109"
   inkscape:cy="-108.29563"
   inkscape:window-width="1920"
   inkscape:window-height="1009"
   inkscape:window-x="-8"
   inkscape:window-y="-8"
   inkscape:window-maximized="1"
   inkscape:current-layer="Layer_1" />



<g
   aria-label="BioTrain.TV"
   id="text1118"
   style="font-style:normal;font-variant:normal;font-weight:normal;font-stretch:normal;font-size:25.6064px;line-height:1.25;font-family:'OCR A Extended';-inkscape-font-specification:'OCR A Extended, Normal';font-variant-ligatures:normal;font-variant-caps:normal;font-variant-numeric:normal;font-variant-east-asian:normal;letter-spacing:-2.7875px;word-spacing:0px;fill:#ff00ff;stroke-width:0.640162"
   transform="matrix(2.676839,0,0,2.676839,-1194.6792,-685.68569)" /><rect
   style="fill:none;stroke:none;stroke-width:0.91817;stroke-linecap:round"
   id="rect841"
   width="473.78949"
   height="266.50659"
   x="17.105249"
   y="9.6217031"
   transform="matrix(3.5653541,0,0,3.5653541,-1264.5999,-558.50107)" /><rect
   style="fill:none;stroke:none;stroke-width:0.91817;stroke-linecap:round"
   id="rect78"
   width="473.78949"
   height="266.50659"
   x="17.105249"
   y="9.6217031"
   transform="matrix(3.5653541,0,0,3.5653541,-1264.5999,-558.50107)" /><rect
   style="fill:none;stroke:none;stroke-width:0.91817;stroke-linecap:round"
   id="rect149"
   width="473.78949"
   height="266.50659"
   x="17.105249"
   y="9.6217031"
   transform="matrix(3.5653541,0,0,3.5653541,-1264.5999,-414.46184)" /><rect
   style="fill:none;stroke:none;stroke-width:0.91817;stroke-linecap:round"
   id="rect150"
   width="473.78949"
   height="266.50659"
   x="17.105249"
   y="9.6217031"
   transform="matrix(3.5653541,0,0,3.5653541,-1264.5999,-414.46184)" /><g
   id="g24"
   transform="translate(3.7864719,13.070416)"><g
     id="text235"
     style="font-size:18.1357px;line-height:1.25;font-family:'OCR A Extended';-inkscape-font-specification:'OCR A Extended, Normal';letter-spacing:-1.97424px;word-spacing:0px;fill:#0000c0;stroke-width:0.453393"
     transform="matrix(3.7003212,0,0,3.7003212,-49.452493,-49.79786)"
     aria-label="BioTrain.TV"><path
       d="m 24.708761,28.191621 v 0.655294 q 0,1.230889 -0.876677,2.116422 -0.867821,0.876677 -2.098711,0.876677 H 17.181737 V 20.07129 h 4.551636 q 1.23089,0 2.098711,0.876677 0.876677,0.876677 0.876677,2.116422 v 0.628728 q 0,1.319443 -1.018362,2.249252 1.018362,0.947519 1.018362,2.249252 z m -1.523115,-4.516215 v -0.611017 q 0,-0.619873 -0.442766,-1.062639 -0.433911,-0.442766 -1.044929,-0.442766 h -3.02852 V 25.1631 h 3.02852 q 0.602162,0 1.044929,-0.43391 0.442766,-0.442766 0.442766,-1.053784 z m 0,5.171509 v -0.619873 q 0,-0.619873 -0.442766,-1.062639 -0.433911,-0.442766 -1.044929,-0.442766 h -3.010809 v 3.612972 h 3.010809 q 0.602162,0 1.044929,-0.433911 0.442766,-0.442766 0.442766,-1.053783 z m 5.986694,-9.430919 h 0.779269 q 0.309936,0 0.522464,0.221383 0.221383,0.212528 0.221383,0.522464 v 0.637584 q 0,0.309936 -0.221383,0.540174 -0.212528,0.221383 -0.522464,0.221383 H 29.15463 q -0.318792,0 -0.540175,-0.230238 -0.212528,-0.230239 -0.203672,-0.513609 l 0.01771,-0.655294 q 0,-0.309936 0.212528,-0.522464 0.221383,-0.221383 0.531319,-0.221383 z m 3.02852,12.406307 h -4.533925 q -0.309936,0 -0.531319,-0.212528 -0.212528,-0.221383 -0.212528,-0.531319 0,-0.301081 0.212528,-0.522464 0.221383,-0.221383 0.531319,-0.221383 h 1.523116 v -5.552287 h -1.505405 q -0.309936,0 -0.531319,-0.221383 -0.212528,-0.221384 -0.212528,-0.522465 0,-0.309936 0.212528,-0.531319 0.221383,-0.230238 0.531319,-0.230238 h 2.266963 q 0.309936,0 0.522464,0.230238 0.221383,0.221383 0.221383,0.531319 v 6.296135 h 1.487694 q 0.309936,0 0.531319,0.221383 0.230239,0.212527 0.230239,0.522464 0,0.309936 -0.221383,0.531319 -0.221384,0.212528 -0.522465,0.212528 z M 42.668348,25.97779 v 3.14364 q 0,1.000651 -0.947519,1.850762 -0.938664,0.850111 -1.939316,0.850111 h -1.744498 q -1.018362,0 -1.948171,-0.858966 -0.929809,-0.867822 -0.929809,-1.841907 v -3.14364 q 0,-0.974085 0.903243,-1.833052 0.912098,-0.867821 1.974737,-0.867821 h 1.744498 q 1.000652,-0.01771 1.939316,0.8324 0.947519,0.850111 0.947519,1.868473 z m -6.003908,0.06199 v 3.01081 q 0,0.407345 0.292225,0.646438 l 0.557886,0.478188 q 0.185961,0.159396 0.522464,0.159396 h 1.726787 q 0.380779,0 0.690716,-0.274515 l 0.451621,-0.39849 q 0.274515,-0.212528 0.274515,-0.593306 v -3.01081 q 0,-0.442766 -0.274515,-0.655294 l -0.522464,-0.4162 q -0.26566,-0.221383 -0.619873,-0.221383 h -1.540826 q -0.504753,0 -0.779268,0.239094 l -0.504753,0.43391 Q 36.66444,25.667857 36.66444,26.03978 Z m 7.47439,-3.940618 v -2.010158 h 7.509314 v 2.027869 q 0,0.309936 -0.221383,0.531319 -0.221383,0.212528 -0.522464,0.212528 -0.309937,0 -0.540175,-0.221383 -0.221383,-0.221384 -0.221383,-0.522464 v -0.540175 h -1.505405 v 9.519471 q 0,0.309937 -0.221383,0.53132 -0.221383,0.212528 -0.522464,0.212528 -0.318792,0 -0.540175,-0.212528 -0.221383,-0.221383 -0.221383,-0.53132 v -9.519471 h -1.505405 v 0.522464 q 0,0.309936 -0.221383,0.531319 -0.212527,0.212528 -0.522464,0.212528 -0.309936,0 -0.531319,-0.212528 -0.212528,-0.221383 -0.212528,-0.531319 z m 8.997503,8.997007 v -7.057692 q 0,-0.309936 0.212527,-0.531319 0.221383,-0.230238 0.53132,-0.230238 0.309936,0 0.522464,0.221383 0.221383,0.221383 0.221383,0.540174 v 0.929809 l 1.213179,-1.036072 q 0.752702,-0.637584 1.469983,-0.637584 h 1.089205 q 0.920954,0 1.576247,0.655294 0.655294,0.655294 0.655294,1.576248 v 0.398489 q 0,0.318792 -0.221383,0.540175 -0.212528,0.221383 -0.522464,0.221383 -0.309936,0 -0.531319,-0.212528 -0.212528,-0.221383 -0.212528,-0.531319 v -0.4162 q 0,-0.309937 -0.221383,-0.522464 -0.212528,-0.221383 -0.522464,-0.221383 h -0.96523 q -0.309936,0 -0.690715,0.327646 l -2.116422,1.833052 v 4.153146 q 0,0.309937 -0.221383,0.53132 -0.221383,0.212528 -0.522464,0.212528 -0.309937,0 -0.53132,-0.212528 -0.212527,-0.221383 -0.212527,-0.53132 z m 11.193624,-4.622478 h 2.913401 q 0.239093,0 0.690715,0.106264 l -0.01771,-1.053783 q 0,-0.309937 -0.221383,-0.522464 -0.212528,-0.221383 -0.522464,-0.221383 h -2.824848 q -0.301081,0 -0.522464,-0.221383 -0.221383,-0.221384 -0.221383,-0.522465 0,-0.309936 0.212528,-0.522464 0.221383,-0.221383 0.531319,-0.221383 h 2.824848 q 0.920954,0 1.567392,0.646439 0.655294,0.646438 0.68186,1.585103 l 0.185962,5.569997 q 0,0.309937 -0.221383,0.53132 -0.221383,0.212528 -0.522464,0.212528 -0.318792,0 -0.540175,-0.212528 -0.221383,-0.221383 -0.221383,-0.53132 l -1.257456,0.743848 h -2.514911 q -0.938664,0 -1.593958,-0.655294 -0.655294,-0.655294 -0.655294,-1.593958 V 28.72294 q 0,-0.929809 0.655294,-1.585103 0.664149,-0.664149 1.593958,-0.664149 z m 3.719235,2.895691 -0.04428,-0.628728 q -0.0089,-0.318792 -0.221383,-0.53132 -0.212527,-0.212527 -0.522464,-0.212527 h -2.931111 q -0.309937,0 -0.53132,0.221383 -0.212527,0.212527 -0.212527,0.522464 v 0.8324 q 0,0.301081 0.221383,0.522464 0.221383,0.221383 0.522464,0.221383 h 2.098711 z m 6.02212,-9.953383 h 0.779268 q 0.309936,0 0.522464,0.221383 0.221383,0.212528 0.221383,0.522464 v 0.637584 q 0,0.309936 -0.221383,0.540174 -0.212528,0.221383 -0.522464,0.221383 h -0.796979 q -0.318791,0 -0.540175,-0.230238 -0.212527,-0.230239 -0.203672,-0.513609 l 0.01771,-0.655294 q 0,-0.309936 0.212527,-0.522464 0.221384,-0.221383 0.53132,-0.221383 z m 3.02852,12.406307 h -4.533925 q -0.309936,0 -0.531319,-0.212528 -0.212528,-0.221383 -0.212528,-0.531319 0,-0.301081 0.212528,-0.522464 0.221383,-0.221383 0.531319,-0.221383 h 1.523115 v -5.552287 h -1.505404 q -0.309937,0 -0.53132,-0.221383 -0.212527,-0.221384 -0.212527,-0.522465 0,-0.309936 0.212527,-0.531319 0.221383,-0.230238 0.53132,-0.230238 h 2.266962 q 0.309936,0 0.522464,0.230238 0.221383,0.221383 0.221383,0.531319 v 6.296135 h 1.487694 q 0.309937,0 0.53132,0.221383 0.230238,0.212527 0.230238,0.522464 0,0.309936 -0.221383,0.531319 -0.221383,0.212528 -0.522464,0.212528 z m 6.491448,-6.800888 -2.027869,1.319443 v 4.755308 q 0,0.301081 -0.221383,0.522464 -0.221383,0.221384 -0.522464,0.221384 -0.301081,0 -0.522464,-0.221384 -0.221383,-0.221383 -0.221383,-0.522464 v -7.057692 q 0,-0.309936 0.212528,-0.531319 0.221383,-0.230238 0.531319,-0.230238 0.301081,0 0.522464,0.230238 0.221383,0.221383 0.221383,0.531319 v 0.495899 l 1.354865,-0.823545 q 0.681859,-0.433911 1.540826,-0.433911 h 0.690715 q 0.885532,0 1.531971,0.628728 0.646438,0.628728 0.681859,1.549681 l 0.203673,5.64084 q 0.0089,0.301081 -0.212528,0.522464 -0.221383,0.221384 -0.531319,0.221384 -0.292226,0 -0.513609,-0.194818 -0.221383,-0.203672 -0.230238,-0.54903 l -0.221383,-5.552287 q -0.02657,-0.779268 -0.81469,-0.779268 h -0.726137 q -0.336502,0 -0.726136,0.256804 z"
       id="path265" /><path
       style="fill:#ff00ff"
       d="M 92.030895,27.146693 H 93.5363 q 0.301081,0 0.522464,0.221383 0.221383,0.212527 0.221383,0.522464 v 1.266311 q 0,0.309936 -0.221383,0.540174 -0.212528,0.221384 -0.522464,0.221384 h -1.523116 q -0.309936,0 -0.531319,-0.221384 -0.212528,-0.221383 -0.212528,-0.522464 V 27.89054 q 0,-0.309937 0.221383,-0.522464 0.221383,-0.221383 0.540175,-0.221383 z m 5.986698,-5.047534 v -2.010158 h 7.509317 v 2.027869 q 0,0.309936 -0.22139,0.531319 -0.22138,0.212528 -0.52246,0.212528 -0.30994,0 -0.54017,-0.221383 -0.22139,-0.221384 -0.22139,-0.522464 v -0.540175 h -1.5054 v 9.519471 q 0,0.309937 -0.22139,0.53132 -0.22138,0.212528 -0.52246,0.212528 -0.31879,0 -0.54017,-0.212528 -0.22139,-0.221383 -0.22139,-0.53132 v -9.519471 h -1.505402 v 0.522464 q 0,0.309936 -0.221383,0.531319 -0.212528,0.212528 -0.522464,0.212528 -0.309937,0 -0.53132,-0.212528 -0.212528,-0.221383 -0.212528,-0.531319 z m 16.524527,-1.266311 v 2.736294 l -3.02852,7.712986 q -0.23024,0.557886 -0.72614,0.557886 -0.52246,0 -0.74385,-0.557886 l -3.01081,-7.712986 v -2.736294 q 0,-0.318792 0.21253,-0.540175 0.22139,-0.221383 0.53132,-0.221383 0.30994,0 0.52247,0.221383 0.22138,0.221383 0.22138,0.540175 v 2.426358 l 2.26696,5.77367 2.26696,-5.755959 v -2.444069 q 0,-0.318792 0.21253,-0.540175 0.22138,-0.221383 0.53132,-0.221383 0.30994,0 0.52246,0.221383 0.22139,0.221383 0.22139,0.540175 z"
       id="path266" /></g><path
     style="font-size:8.19725px;line-height:1.25;font-family:'OCR A Extended';-inkscape-font-specification:'OCR A Extended, Normal';letter-spacing:-0.819725px;word-spacing:0px;fill:#008000;stroke-width:0.495833"
     d="m 18.5346,36.76869 v 0.828531 q 0,0.140089 -0.100064,0.244156 -0.09606,0.100064 -0.236151,0.100064 -0.14009,0 -0.240154,-0.100064 -0.09606,-0.104067 -0.09606,-0.244156 V 36.76869 h -0.34422 q -0.14009,0 -0.240154,-0.09606 -0.09606,-0.100065 -0.09606,-0.240154 0,-0.136087 0.09606,-0.236152 0.100064,-0.100064 0.240154,-0.100064 h 0.336215 v -0.768492 h -0.336215 q -0.14009,0 -0.240154,-0.09606 -0.09606,-0.100064 -0.09606,-0.240154 0,-0.144092 0.09606,-0.240154 0.100064,-0.09606 0.240154,-0.09606 h 0.34422 v -0.82853 q 0,-0.14009 0.09606,-0.236151 0.100064,-0.100065 0.240154,-0.100065 0.136087,0 0.236151,0.100065 0.100064,0.100064 0.100064,0.236151 v 0.82853 h 0.672431 v -0.82853 q 0,-0.14009 0.100064,-0.236151 0.100064,-0.100065 0.236151,-0.100065 0.14009,0 0.240154,0.100065 0.104067,0.100064 0.104067,0.236151 v 0.82853 h 0.34422 q 0.136087,0 0.236151,0.100065 0.100064,0.09606 0.100064,0.236151 0,0.144092 -0.108069,0.244156 -0.108069,0.100064 -0.228146,0.100064 h -0.336215 v 0.760487 h 0.336215 q 0.132085,0 0.232149,0.100064 0.104066,0.100065 0.104066,0.236152 0,0.132084 -0.09606,0.236151 -0.09206,0.100064 -0.240154,0.100064 h -0.34422 v 0.828531 q 0,0.140089 -0.104067,0.244156 -0.100064,0.100064 -0.240154,0.100064 -0.136087,0 -0.236151,-0.100064 -0.100064,-0.104067 -0.100064,-0.244156 V 36.76869 Z m 0,-1.432918 v 0.760487 h 0.672431 v -0.760487 z m 6.164749,1.825169 v 0.29619 q 0,0.556356 -0.396254,0.956613 -0.392251,0.396254 -0.948608,0.396254 H 21.29717 V 33.49059 h 2.057317 q 0.556357,0 0.948608,0.396254 0.396254,0.396254 0.396254,0.956613 v 0.284182 q 0,0.596382 -0.460295,1.016651 0.460295,0.428274 0.460295,1.016651 z m -0.688441,-2.041307 v -0.276177 q 0,-0.280179 -0.200128,-0.480308 -0.196126,-0.200128 -0.472303,-0.200128 H 21.9696 v 1.629044 h 1.368877 q 0.272174,0 0.472303,-0.196126 0.200128,-0.200128 0.200128,-0.476305 z m 0,2.337497 v -0.280179 q 0,-0.28018 -0.200128,-0.480308 -0.196126,-0.200128 -0.472303,-0.200128 h -1.360872 v 1.633046 h 1.360872 q 0.272174,0 0.472303,-0.196126 0.200128,-0.200128 0.200128,-0.476305 z m 2.434359,-1.072687 h 1.316844 q 0.108069,0 0.3122,0.04803 l -0.008,-0.476305 q 0,-0.14009 -0.100064,-0.236152 -0.09606,-0.100064 -0.236151,-0.100064 h -1.276818 q -0.136087,0 -0.236151,-0.100064 -0.100064,-0.100064 -0.100064,-0.236151 0,-0.14009 0.09606,-0.236151 0.100065,-0.100064 0.240154,-0.100064 h 1.276818 q 0.416267,0 0.708454,0.292187 0.29619,0.292187 0.308197,0.716459 l 0.08405,2.517612 q 0,0.14009 -0.100064,0.240154 -0.100064,0.09606 -0.236151,0.09606 -0.144093,0 -0.244157,-0.09606 -0.100064,-0.100064 -0.100064,-0.240154 l -0.568364,0.336216 h -1.136728 q -0.424272,0 -0.720461,-0.29619 -0.29619,-0.29619 -0.29619,-0.720462 v -0.392251 q 0,-0.420269 0.29619,-0.716459 0.300192,-0.300192 0.720461,-0.300192 z m 1.681077,1.308838 -0.02001,-0.284182 q -0.004,-0.144092 -0.100064,-0.240154 -0.09606,-0.09606 -0.236151,-0.09606 H 26.44527 q -0.14009,0 -0.240154,0.100064 -0.09606,0.09606 -0.09606,0.236151 v 0.376241 q 0,0.136087 0.100064,0.236152 0.100064,0.100064 0.236151,0.100064 h 0.948608 z m 2.13817,-3.866476 v 1.581012 l 0.29619,-0.236151 q 0.280179,-0.232148 0.580371,-0.232148 h 0.616395 q 0.340218,0 0.604387,0.232148 l 0.320205,0.276177 q 0.132085,0.116074 0.216139,0.332213 0.08806,0.216138 0.08806,0.424272 V 37.5652 q 0,0.184118 -0.08005,0.388249 -0.08005,0.204131 -0.184118,0.300192 l -0.292187,0.276177 q -0.112072,0.108069 -0.320205,0.196126 -0.208133,0.08405 -0.352226,0.08405 h -0.576369 q -0.420269,0 -0.916587,-0.4683 v 0.132084 q 0,0.14009 -0.100064,0.240154 -0.09606,0.09606 -0.236151,0.09606 -0.14009,0 -0.240154,-0.09606 -0.09606,-0.100064 -0.09606,-0.240154 v -4.646976 q 0,-0.14009 0.100064,-0.236151 0.100064,-0.100065 0.236152,-0.100065 0.140089,0 0.236151,0.100065 0.100064,0.09606 0.100064,0.236151 z m 1.440923,1.793148 H 31.24114 q -0.168108,0 -0.256165,0.07605 l -0.604387,0.516331 q -0.116074,0.104066 -0.116074,0.3122 v 0.760487 q 0,0.168107 0.132085,0.280179 l 0.540346,0.456293 q 0.116074,0.108069 0.244156,0.108069 h 0.548351 q 0.116075,0 0.200128,-0.07205 l 0.268172,-0.240154 q 0.108069,-0.08005 0.108069,-0.228146 v -1.416908 q 0,-0.168108 -0.108069,-0.256164 L 31.953596,35.71201 q -0.112072,-0.09206 -0.248159,-0.09206 z m 2.002082,2.853828 v -3.190043 q 0,-0.14009 0.09606,-0.240154 0.100065,-0.104066 0.240154,-0.104066 0.14009,0 0.236152,0.100064 0.100064,0.100064 0.100064,0.244156 v 0.420269 l 0.548351,-0.4683 q 0.340218,-0.288184 0.664425,-0.288184 h 0.492316 q 0.416266,0 0.712456,0.296189 0.29619,0.29619 0.29619,0.712457 v 0.180115 q 0,0.144092 -0.100064,0.244156 -0.09606,0.100065 -0.236152,0.100065 -0.140089,0 -0.240153,-0.09606 -0.09606,-0.100064 -0.09606,-0.240154 v -0.18812 q 0,-0.14009 -0.100064,-0.236152 -0.09606,-0.100064 -0.236151,-0.100064 h -0.43628 q -0.140089,0 -0.3122,0.148095 L 34.37995,36.59658 v 1.877202 q 0,0.14009 -0.100064,0.240154 -0.100065,0.09606 -0.236152,0.09606 -0.140089,0 -0.240154,-0.09606 -0.09606,-0.100064 -0.09606,-0.240154 z m 5.132088,-2.089338 h 1.316843 q 0.108069,0 0.3122,0.04803 l -0.008,-0.476305 q 0,-0.14009 -0.100064,-0.236152 -0.09606,-0.100064 -0.236151,-0.100064 h -1.276818 q -0.136087,0 -0.236151,-0.100064 -0.100065,-0.100064 -0.100065,-0.236151 0,-0.14009 0.09606,-0.236151 0.100064,-0.100064 0.240154,-0.100064 h 1.276818 q 0.416266,0 0.708453,0.292187 0.29619,0.292187 0.308198,0.716459 l 0.08405,2.517612 q 0,0.14009 -0.100064,0.240154 -0.100065,0.09606 -0.236152,0.09606 -0.144092,0 -0.244156,-0.09606 -0.100064,-0.100064 -0.100064,-0.240154 l -0.568364,0.336216 h -1.136728 q -0.424272,0 -0.720462,-0.29619 -0.296189,-0.29619 -0.296189,-0.720462 v -0.392251 q 0,-0.420269 0.296189,-0.716459 0.300193,-0.300192 0.720462,-0.300192 z m 1.681076,1.308838 -0.02001,-0.284182 q -0.004,-0.144092 -0.100064,-0.240154 -0.09606,-0.09606 -0.236152,-0.09606 h -1.324848 q -0.14009,0 -0.240154,0.100064 -0.09606,0.09606 -0.09606,0.236151 v 0.376241 q 0,0.136087 0.100064,0.236152 0.100065,0.100064 0.236152,0.100064 h 0.948607 z m 1.441724,0.7805 v -4.646976 q 0,-0.136087 0.09606,-0.232149 0.100064,-0.09606 0.240154,-0.09606 0.14009,0 0.236151,0.100064 0.100064,0.09606 0.100064,0.236151 v 1.697087 l 0.540346,-0.352226 q 0.368236,-0.232148 0.656421,-0.232148 h 0.416266 q 0.412264,0 0.708454,0.296189 0.29619,0.292187 0.308198,0.712457 l 0.08405,2.517612 q 0.004,0.14009 -0.09606,0.240154 -0.100064,0.09606 -0.240154,0.09606 -0.14009,0 -0.236151,-0.100065 -0.09606,-0.104066 -0.100064,-0.236151 l -0.08405,-2.525617 q -0.004,-0.136088 -0.104067,-0.236152 -0.100064,-0.100064 -0.240154,-0.100064 H 43.87163 q -0.128082,0 -0.280179,0.100064 l -0.956613,0.6244 v 2.137369 q 0,0.14009 -0.100064,0.240154 -0.09606,0.09606 -0.236151,0.09606 -0.14009,0 -0.240154,-0.09606 -0.09606,-0.100064 -0.09606,-0.240154 z m 5.140091,-2.089338 h 1.316844 q 0.108069,0 0.3122,0.04803 l -0.008,-0.476305 q 0,-0.14009 -0.100064,-0.236152 -0.09606,-0.100064 -0.236152,-0.100064 h -1.276817 q -0.136088,0 -0.236152,-0.100064 -0.100064,-0.100064 -0.100064,-0.236151 0,-0.14009 0.09606,-0.236151 0.100064,-0.100064 0.240154,-0.100064 h 1.276817 q 0.416267,0 0.708454,0.292187 0.29619,0.292187 0.308198,0.716459 l 0.08405,2.517612 q 0,0.14009 -0.100064,0.240154 -0.100064,0.09606 -0.236151,0.09606 -0.144092,0 -0.244156,-0.09606 -0.100064,-0.100064 -0.100064,-0.240154 l -0.568364,0.336216 h -1.136729 q -0.424271,0 -0.720461,-0.29619 -0.29619,-0.29619 -0.29619,-0.720462 v -0.392251 q 0,-0.420269 0.29619,-0.716459 0.300192,-0.300192 0.720461,-0.300192 z m 1.681077,1.308838 -0.02001,-0.284182 q -0.004,-0.144092 -0.100064,-0.240154 -0.09606,-0.09606 -0.236151,-0.09606 h -1.324849 q -0.140089,0 -0.240153,0.100064 -0.09606,0.09606 -0.09606,0.236151 v 0.376241 q 0,0.136087 0.100064,0.236152 0.100064,0.100064 0.236151,0.100064 h 0.948608 z m 1.365676,0.7805 v -3.190043 q 0,-0.14009 0.09606,-0.236151 0.100064,-0.100064 0.240154,-0.100064 0.260167,0 0.32821,0.256164 0.28018,-0.264169 0.6244,-0.264169 0.404259,0 0.664426,0.34422 0.320205,-0.34422 0.704451,-0.34422 0.3122,0 0.540346,0.224143 0.232149,0.220141 0.248159,0.564362 l 0.09606,2.745758 q 0,0.136087 -0.100064,0.236151 -0.100064,0.100065 -0.236151,0.100065 -0.14009,0 -0.240154,-0.100065 -0.100064,-0.100064 -0.104066,-0.236151 l -0.08005,-2.637689 q -0.008,-0.216139 -0.132084,-0.216139 -0.06804,0 -0.14009,0.06004 l -0.400256,0.336215 v 2.457574 q 0,0.136087 -0.100064,0.232149 -0.09606,0.09606 -0.236152,0.09606 -0.136087,0 -0.236151,-0.09606 -0.100064,-0.100064 -0.100064,-0.240154 v -2.673712 q 0,-0.172111 -0.148095,-0.172111 -0.07205,0 -0.132085,0.05203 l -0.48431,0.408261 v 2.393533 q 0,0.136087 -0.09606,0.236151 -0.09606,0.100065 -0.232149,0.100065 -0.14009,0 -0.244156,-0.100065 -0.100064,-0.100064 -0.100064,-0.236151 z m 11.733116,-1.312841 v 0.29619 q 0,0.556356 -0.396254,0.956613 -0.392251,0.396254 -0.948607,0.396254 H 58.480188 V 33.49059 h 2.057318 q 0.556356,0 0.948607,0.396254 0.396254,0.396254 0.396254,0.956613 v 0.284182 q 0,0.596382 -0.460295,1.016651 0.460295,0.428274 0.460295,1.016651 z m -0.688441,-2.041307 v -0.276177 q 0,-0.280179 -0.200128,-0.480308 -0.196126,-0.200128 -0.472303,-0.200128 h -1.368876 v 1.629044 h 1.368876 q 0.272175,0 0.472303,-0.196126 0.200128,-0.200128 0.200128,-0.476305 z m 0,2.337497 v -0.280179 q 0,-0.28018 -0.200128,-0.480308 -0.196126,-0.200128 -0.472303,-0.200128 h -1.360871 v 1.633046 h 1.360871 q 0.272175,0 0.472303,-0.196126 0.200128,-0.200128 0.200128,-0.476305 z m 2.77858,-4.26273 h 0.352226 q 0.14009,0 0.236151,0.100064 0.100064,0.09606 0.100064,0.236151 v 0.288185 q 0,0.140089 -0.100064,0.244156 -0.09606,0.100064 -0.236151,0.100064 h -0.360231 q -0.144092,0 -0.244156,-0.104067 -0.09606,-0.104066 -0.09206,-0.232148 l 0.008,-0.29619 q 0,-0.14009 0.09606,-0.236151 0.100065,-0.100064 0.240154,-0.100064 z m 1.368877,5.607591 H 63.29207 q -0.140089,0 -0.240153,-0.09606 -0.09606,-0.100064 -0.09606,-0.240154 0,-0.136087 0.09606,-0.236151 0.100064,-0.100064 0.240153,-0.100064 h 0.688441 v -2.509608 h -0.680435 q -0.14009,0 -0.240154,-0.100064 -0.09606,-0.100064 -0.09606,-0.236151 0,-0.14009 0.09606,-0.240154 0.100064,-0.104066 0.240154,-0.104066 h 1.024656 q 0.14009,0 0.236151,0.104066 0.100064,0.100064 0.100064,0.240154 v 2.845823 h 0.672431 q 0.14009,0 0.240154,0.100064 0.104066,0.09606 0.104066,0.236151 0,0.14009 -0.100064,0.240154 -0.100064,0.09606 -0.236151,0.09606 z M 70.145261,36.1603 v 1.420911 q 0,0.452289 -0.428275,0.836535 -0.424271,0.384246 -0.876561,0.384246 H 68.05192 q -0.460295,0 -0.880564,-0.388248 -0.420269,-0.392251 -0.420269,-0.832533 V 36.1603 q 0,-0.440282 0.408261,-0.82853 0.412264,-0.392251 0.892572,-0.392251 h 0.788505 q 0.45229,-0.008 0.876561,0.37624 0.428275,0.384247 0.428275,0.844541 z m -2.713739,0.02802 v 1.360872 q 0,0.184118 0.132085,0.292187 l 0.252162,0.216139 q 0.08405,0.07205 0.236151,0.07205 h 0.7805 q 0.17211,0 0.3122,-0.12408 l 0.20413,-0.180115 q 0.12408,-0.09606 0.12408,-0.268172 v -1.360872 q 0,-0.200128 -0.12408,-0.296189 L 69.112599,35.712013 Q 68.992522,35.611949 68.83242,35.611949 h -0.696446 q -0.228146,0 -0.352226,0.108069 l -0.228146,0.196126 q -0.12408,0.104067 -0.12408,0.272174 z M 72.2354,33.194401 h 0.352226 q 0.140089,0 0.236151,0.100064 0.100064,0.09606 0.100064,0.236151 v 0.288185 q 0,0.140089 -0.100064,0.244156 -0.09606,0.100064 -0.236151,0.100064 h -0.360231 q -0.144092,0 -0.244157,-0.104067 -0.09606,-0.104066 -0.09206,-0.232148 l 0.008,-0.29619 q 0,-0.14009 0.09606,-0.236151 0.100064,-0.100064 0.240154,-0.100064 z m 1.368877,5.607591 h -2.049313 q -0.14009,0 -0.240154,-0.09606 -0.09606,-0.100064 -0.09606,-0.240154 0,-0.136087 0.09606,-0.236151 0.100064,-0.100064 0.240154,-0.100064 h 0.688441 v -2.509608 h -0.680436 q -0.140089,0 -0.240154,-0.100064 -0.09606,-0.100064 -0.09606,-0.236151 0,-0.14009 0.09606,-0.240154 0.100065,-0.104066 0.240154,-0.104066 h 1.024657 q 0.140089,0 0.236151,0.104066 0.100064,0.100064 0.100064,0.240154 v 2.845823 h 0.672431 q 0.140089,0 0.240153,0.100064 0.104067,0.09606 0.104067,0.236151 0,0.14009 -0.100064,0.240154 -0.100064,0.09606 -0.236151,0.09606 z m 3.006722,-3.073968 -0.916587,0.596382 v 2.149376 q 0,0.136087 -0.100064,0.236151 -0.100064,0.100065 -0.236151,0.100065 -0.136087,0 -0.236151,-0.100065 -0.100064,-0.100064 -0.100064,-0.236151 v -3.190043 q 0,-0.14009 0.09606,-0.240154 0.100064,-0.104066 0.240154,-0.104066 0.136087,0 0.236151,0.104066 0.100064,0.100064 0.100064,0.240154 v 0.224144 l 0.612393,-0.372239 q 0.308197,-0.196125 0.696446,-0.196125 h 0.3122 q 0.400256,0 0.692443,0.284182 0.292187,0.284182 0.308197,0.700448 l 0.09206,2.549633 q 0.004,0.136087 -0.09606,0.236151 -0.100064,0.100065 -0.240154,0.100065 -0.132084,0 -0.232149,-0.08806 -0.100064,-0.09206 -0.104066,-0.248159 l -0.100064,-2.509607 q -0.01201,-0.352226 -0.368236,-0.352226 h -0.32821 q -0.152098,0 -0.328211,0.116075 z m 4.075411,-0.10807 v 2.853828 q 0,0.14009 -0.100064,0.240154 -0.100064,0.09606 -0.236151,0.09606 -0.144092,0 -0.244156,-0.09606 -0.100064,-0.100064 -0.100064,-0.240154 v -2.853828 h -0.344221 q -0.14009,0 -0.240154,-0.100064 -0.09606,-0.100064 -0.09606,-0.236151 0,-0.132085 0.08806,-0.232149 0.09206,-0.104066 0.248159,-0.104066 h 0.352226 v -0.260167 q 0,-0.516331 0.352225,-0.856549 0.356228,-0.340218 0.884567,-0.340218 h 0.788505 q 0.14009,0 0.236151,0.100065 0.100064,0.100064 0.100064,0.244156 0,0.136087 -0.100064,0.236151 -0.100064,0.100064 -0.236151,0.100064 h -0.788505 q -0.240154,0 -0.400257,0.144093 -0.1561,0.144092 -0.1561,0.372238 v 0.260167 h 0.672431 q 0.136087,-0.004 0.236151,0.09606 0.100064,0.100064 0.100064,0.240154 0,0.136087 -0.100064,0.236151 -0.100064,0.100064 -0.236151,0.100064 z m 5.984634,0.540346 v 1.420911 q 0,0.452289 -0.428274,0.836535 -0.424272,0.384246 -0.876562,0.384246 h -0.788505 q -0.460294,0 -0.880564,-0.388248 Q 83.27687,38.021493 83.27687,37.581211 V 36.1603 q 0,-0.440282 0.408262,-0.82853 0.412264,-0.392251 0.892571,-0.392251 h 0.788505 q 0.45229,-0.008 0.876562,0.37624 0.428274,0.384247 0.428274,0.844541 z m -2.713738,0.02802 v 1.360872 q 0,0.184118 0.132085,0.292187 l 0.252161,0.216139 q 0.08405,0.07205 0.236151,0.07205 h 0.7805 q 0.17211,0 0.3122,-0.12408 l 0.204131,-0.180115 q 0.124079,-0.09606 0.124079,-0.268172 v -1.360872 q 0,-0.200128 -0.124079,-0.296189 l -0.236151,-0.188121 q -0.120077,-0.100064 -0.28018,-0.100064 h -0.696446 q -0.228146,0 -0.352225,0.108069 l -0.228147,0.196126 q -0.124079,0.104067 -0.124079,0.272174 z m 3.459016,2.285464 v -3.190043 q 0,-0.14009 0.09606,-0.240154 0.100064,-0.104066 0.240153,-0.104066 0.14009,0 0.236152,0.100064 0.100064,0.100064 0.100064,0.244156 v 0.420269 l 0.548351,-0.4683 q 0.340218,-0.288184 0.664426,-0.288184 h 0.492315 q 0.416267,0 0.712456,0.296189 0.29619,0.29619 0.29619,0.712457 v 0.180115 q 0,0.144092 -0.100064,0.244156 -0.09606,0.100065 -0.236151,0.100065 -0.14009,0 -0.240154,-0.09606 -0.09606,-0.100064 -0.09606,-0.240154 v -0.18812 q 0,-0.14009 -0.100064,-0.236152 -0.09606,-0.100064 -0.236151,-0.100064 h -0.43628 q -0.140089,0 -0.312199,0.148095 l -0.956613,0.828531 v 1.877202 q 0,0.14009 -0.100064,0.240154 -0.100064,0.09606 -0.236152,0.09606 -0.140089,0 -0.240153,-0.09606 -0.09606,-0.100064 -0.09606,-0.240154 z m 4.047393,0 v -3.190043 q 0,-0.14009 0.09606,-0.236151 0.100064,-0.100064 0.240153,-0.100064 0.260167,0 0.328211,0.256164 0.280179,-0.264169 0.6244,-0.264169 0.404259,0 0.664425,0.34422 0.320205,-0.34422 0.704451,-0.34422 0.3122,0 0.540346,0.224143 0.232149,0.220141 0.248159,0.564362 l 0.09606,2.745758 q 0,0.136087 -0.100064,0.236151 Q 94.805852,38.81 94.669765,38.81 q -0.14009,0 -0.240154,-0.100065 -0.100064,-0.100064 -0.104067,-0.236151 l -0.08005,-2.637689 q -0.008,-0.216139 -0.132085,-0.216139 -0.06804,0 -0.140089,0.06004 l -0.400257,0.336215 v 2.457574 q 0,0.136087 -0.100064,0.232149 -0.09606,0.09606 -0.236151,0.09606 -0.136087,0 -0.236151,-0.09606 -0.100065,-0.100064 -0.100065,-0.240154 v -2.673712 q 0,-0.172111 -0.148094,-0.172111 -0.07205,0 -0.132085,0.05203 l -0.48431,0.408261 v 2.393533 q 0,0.136087 -0.09606,0.236151 -0.09606,0.100065 -0.232148,0.100065 -0.14009,0 -0.244157,-0.100065 -0.100064,-0.100064 -0.100064,-0.236151 z m 5.216142,-2.089338 H 97.9967 q 0.108069,0 0.3122,0.04803 l -0.008,-0.476305 q 0,-0.14009 -0.100064,-0.236152 -0.09606,-0.100064 -0.236151,-0.100064 h -1.276818 q -0.136087,0 -0.236151,-0.100064 -0.100065,-0.100064 -0.100065,-0.236151 0,-0.14009 0.09606,-0.236151 0.100064,-0.100064 0.240154,-0.100064 h 1.276818 q 0.416266,0 0.708453,0.292187 0.29619,0.292187 0.308198,0.716459 l 0.08405,2.517612 q 0,0.14009 -0.100064,0.240154 -0.100065,0.09606 -0.236152,0.09606 -0.144092,0 -0.244156,-0.09606 -0.100064,-0.100064 -0.100064,-0.240154 l -0.568364,0.336216 h -1.136728 q -0.424272,0 -0.720462,-0.29619 -0.296189,-0.29619 -0.296189,-0.720462 v -0.392251 q 0,-0.420269 0.296189,-0.716459 0.300193,-0.300192 0.720462,-0.300192 z m 1.681076,1.308838 -0.02001,-0.284182 q -0.004,-0.144092 -0.100064,-0.240154 -0.09606,-0.09606 -0.236152,-0.09606 h -1.324848 q -0.14009,0 -0.240154,0.100064 -0.09606,0.09606 -0.09606,0.236151 v 0.376241 q 0,0.136087 0.100064,0.236152 0.100065,0.100064 0.236152,0.100064 h 0.948607 z M 102.17218,38.81 h -0.67244 q -0.41626,0 -0.71645,-0.29619 -0.3002,-0.29619 -0.3002,-0.712456 v -2.181398 h -0.34422 q -0.140087,0 -0.240151,-0.09606 -0.09606,-0.09606 -0.09606,-0.240154 0,-0.14009 0.09606,-0.236151 0.100064,-0.100064 0.240151,-0.100064 h 0.35223 v -0.824528 q 0,-0.14009 0.0961,-0.236152 0.10006,-0.100064 0.24015,-0.100064 0.13209,0 0.23215,0.100064 0.10407,0.100064 0.10407,0.236152 v 0.824528 h 1.35287 q 0.13608,0 0.23615,0.100064 0.10006,0.100064 0.10006,0.236151 0,0.14009 -0.10006,0.240154 -0.10007,0.09606 -0.23615,0.09606 h -1.36088 v 2.181398 q 0,0.136087 0.10007,0.236151 0.10406,0.100064 0.24415,0.100064 h 0.65642 q 0.26818,0 0.35623,-0.288185 0.0881,-0.292187 0.34022,-0.292187 0.1481,0 0.24015,0.100064 0.0961,0.09606 0.0961,0.244157 0,0.304194 -0.28819,0.608389 Q 102.61653,38.81 102.17225,38.81 Z m 3.11479,-5.615597 h 0.35223 q 0.14009,0 0.23615,0.100064 0.10006,0.09606 0.10006,0.236151 v 0.288185 q 0,0.140089 -0.10006,0.244156 -0.0961,0.100064 -0.23615,0.100064 h -0.36023 q -0.1441,0 -0.24416,-0.104067 -0.0961,-0.104066 -0.0921,-0.232148 l 0.008,-0.29619 q 0,-0.14009 0.0961,-0.236151 0.10006,-0.100064 0.24015,-0.100064 z m 1.36888,5.607591 h -2.04931 q -0.14009,0 -0.24016,-0.09606 -0.0961,-0.100064 -0.0961,-0.240154 0,-0.136087 0.0961,-0.236151 0.10007,-0.100064 0.24016,-0.100064 h 0.68844 v -2.509608 h -0.68044 q -0.14009,0 -0.24015,-0.100064 -0.0961,-0.100064 -0.0961,-0.236151 0,-0.14009 0.0961,-0.240154 0.10006,-0.104066 0.24015,-0.104066 h 1.02466 q 0.14009,0 0.23615,0.104066 0.10006,0.100064 0.10006,0.240154 v 2.845823 h 0.67243 q 0.14009,0 0.24016,0.100064 0.10406,0.09606 0.10406,0.236151 0,0.14009 -0.10006,0.240154 -0.10007,0.09606 -0.23615,0.09606 z m 4.47566,0.008 h -1.43692 q -0.38024,0 -0.64841,-0.228147 l -0.65242,-0.568364 q -0.3122,-0.260166 -0.3122,-0.704451 v -0.876561 q -0.016,-0.428275 0.35223,-0.744477 l 0.58837,-0.508326 q 0.28419,-0.232148 0.60839,-0.232148 h 1.50897 q 0.14009,0 0.23615,0.100064 0.10007,0.09606 0.10007,0.236151 0,0.144092 -0.10007,0.240154 -0.0961,0.09606 -0.23615,0.09606 h -1.44493 q -0.13608,0 -0.26016,0.10807 l -0.54035,0.460294 Q 108.762,36.30039 108.762,36.488511 v 0.820525 q 0,0.132085 0.10406,0.224144 l 0.59238,0.504323 q 0.11208,0.100064 0.29619,0.100064 h 1.37688 q 0.13609,0 0.23616,0.100064 0.10006,0.09606 0.10006,0.236151 0,0.14009 -0.10006,0.240154 -0.0961,0.09606 -0.23616,0.09606 z m 2.0141,-3.862474 h 1.54098 q 0.36023,0 0.63641,0.216138 0.27618,0.212136 0.27618,0.416267 0,0.144092 -0.10407,0.236151 -0.10006,0.09206 -0.22414,0.09206 -0.16011,0 -0.29219,-0.144092 -0.13208,-0.144093 -0.27618,-0.144093 h -1.52097 q -0.22414,0 -0.22414,0.188121 0,0.132084 0.14809,0.200128 l 1.78915,0.792508 q 0.27217,0.120077 0.44428,0.388248 0.17611,0.264169 0.17611,0.588377 0,0.432277 -0.30819,0.732469 -0.3042,0.300193 -0.69245,0.300193 h -1.36087 q -0.35222,0 -0.65642,-0.212136 -0.30019,-0.212136 -0.30019,-0.412264 0,-0.132085 0.0961,-0.232149 0.10006,-0.104067 0.25616,-0.104067 0.12809,0 0.27218,0.144093 0.14809,0.144092 0.42427,0.144092 h 1.2528 q 0.1481,0 0.24816,-0.112072 0.10007,-0.116074 0.10007,-0.264169 0,-0.228146 -0.22415,-0.32821 l -1.80515,-0.812521 q -0.26017,-0.116074 -0.40026,-0.336215 -0.14009,-0.220141 -0.14009,-0.448287 0,-0.360231 0.24816,-0.6244 0.25216,-0.264169 0.6204,-0.264169 z"
     id="text236"
     transform="matrix(3.7003212,0,0,3.7003212,-49.452493,-49.79786)"
     aria-label="#Babraham Bioinformatics" /></g><rect
   style="fill:none;stroke:none;stroke-width:0.91817;stroke-linecap:round"
   id="rect236"
   width="473.78949"
   height="266.50659"
   x="17.105249"
   y="9.6217031"
   transform="matrix(3.5653541,0,0,3.5653541,-1264.5999,-412.60327)" /><rect
   style="fill:none;stroke:none;stroke-width:0.91817;stroke-linecap:round"
   id="rect237"
   width="473.78949"
   height="266.50659"
   x="17.105249"
   y="9.6217031"
   transform="matrix(3.5653541,0,0,3.5653541,-1264.5999,-412.60327)" /></svg>
